<?xml version="1.0" encoding="utf-8"?>
<!-- Generator: Adobe Illustrator 14.0.0, SVG Export Plug-In . SVG Version: 6.00 Build 43363)  -->
<!DOCTYPE svg PUBLIC "-//W3C//DTD SVG 1.1//EN" "http://www.w3.org/Graphics/SVG/1.1/DTD/svg11.dtd">
<svg version="1.1" id="圖層_1" xmlns="http://www.w3.org/2000/svg" xmlns:xlink="http://www.w3.org/1999/xlink" x="0px" y="0px"
	 width="50px" height="50px" viewBox="15 15 50 50" enable-background="new 15 15 50 50" xml:space="preserve">
<path fill-rule="evenodd" clip-rule="evenodd" fill="#F4F4F4" d="M40,15c13.807,0,25,11.193,25,25c0,13.807-11.193,25-25,25
	S15,53.807,15,40C15,26.193,26.193,15,40,15z"/>
<path fill-rule="evenodd" clip-rule="evenodd" fill="#808080" d="M48.507,53.248H30.492c-1.514,0-2.746-1.245-2.746-2.775V40.196
	c0-0.278,0.223-0.503,0.497-0.503h3.007c0.274,0,0.497,0.225,0.497,0.503v9.009h15.505v-9.009c0-0.278,0.223-0.503,0.497-0.503
	h3.007c0.274,0,0.497,0.225,0.496,0.503v10.276C51.252,52.003,50.021,53.248,48.507,53.248z M41.353,32.914l-0.001,6.422
	c0,1.109-0.89,2.01-1.987,2.01c-1.099,0-1.988-0.9-1.988-2.01v-6.422h-2.919c-0.728,0-0.843-0.362-0.322-0.877l5.23-5.285
	l5.229,5.284c0.521,0.515,0.405,0.878-0.321,0.877H41.353z"/>
</svg>
