<?xml version="1.0" encoding="utf-8"?>
<!DOCTYPE svg PUBLIC "-//W3C//DTD SVG 1.1//EN" "http://www.w3.org/Graphics/SVG/1.1/DTD/svg11.dtd">
<svg version="1.1" xmlns="http://www.w3.org/2000/svg" x="0px" y="0px" width="70px" height="70px" viewBox="0 0 70 70">
<path fill-rule="evenodd" clip-rule="evenodd" fill="#FFFFFF" d="M35,0c19.33,0,35,15.67,35,35S54.33,70,35,70S0,54.33,0,35
	S15.67,0,35,0z"/>
<path fill-rule="evenodd" clip-rule="evenodd" fill="#646464" d="M31,31h2v2h-2V31z M33.418,44.366l0.691-0.691l1.632,1.633
	l-3.478,3.48l-3.478-3.48l1.632-1.633l0.691,0.691 M36.229,34.972h2.009V37h-2.009V34.972z M36.339,25.476l-0.694,0.702l-1.64-1.656
	l3.494-3.529l3.493,3.529l-1.64,1.656l-0.694-0.702 M27.642,30.004h-0.417c-2.882,0-5.226-2.188-5.226-4.879
	c0-2.283,1.689-4.206,3.962-4.734c0.263-1.909,1.204-3.662,2.717-5.023c1.699-1.528,3.944-2.37,6.321-2.37s4.622,0.842,6.321,2.37
	c1.513,1.361,2.455,3.114,2.717,5.023c1.413,0.329,2.601,1.196,3.297,2.354l0.663,2.5c-0.068,2.635-2.384,4.76-5.223,4.76H30.32
	 M42.774,27.504H27.225c-1.405,0-2.548-1.067-2.548-2.379c0-1.312,1.144-2.379,2.548-2.379h1.339v-1.25
	c0-1.646,0.7-3.184,1.972-4.328c1.197-1.077,2.782-1.67,4.463-1.67c1.681,0,3.266,0.593,4.463,1.67
	c1.272,1.144,1.973,2.682,1.973,4.328v1.25h1.339c1.405,0,2.548,1.067,2.548,2.379C45.322,26.437,44.179,27.504,42.774,27.504z
	 M36.418,38.704h11.574v12.403h1.29v6.083H21.206v-6.083h1.29V38.704H34.11H36.418z M46.974,54.879H23.515v-1.463h23.459V54.879z
	 M36.418,41.013h9.266l0,0l0,0v10.093H24.805V41.013h9.305H36.418z"/>
<path fill-rule="evenodd" clip-rule="evenodd" fill="#646464" d="M31.25,35h2v11h-2V35z M36.479,32.944h2.009V23.82h-2.009V32.944z"
	/>
</svg>
