<?xml version="1.0" encoding="utf-8"?>
<!DOCTYPE svg PUBLIC "-//W3C//DTD SVG 1.1//EN" "http://www.w3.org/Graphics/SVG/1.1/DTD/svg11.dtd">
<svg version="1.1" xmlns="http://www.w3.org/2000/svg" x="0px" y="0px"
	 width="70px" height="70px" viewBox="0 0 70 70">
<path fill="#646464" d="M50.357,22.811c-0.003-0.246-0.098-0.488-0.277-0.668L42.736,14.8l-0.001-0.001
	c-0.174-0.172-0.413-0.28-0.677-0.28H21.66c-1.114,0-2.019,0.906-2.019,2.019V53.46c0,1.114,0.905,2.02,2.019,2.02h26.681
	c1.114,0,2.019-0.905,2.019-2.02V22.819C50.359,22.816,50.357,22.813,50.357,22.811 M43.017,17.794l4.068,4.066h-3.967
	c-0.056,0-0.102-0.045-0.102-0.101V17.794z M48.441,53.461c0,0.056-0.046,0.101-0.101,0.101H21.66c-0.056,0-0.101-0.045-0.101-0.101
	V16.539c0-0.055,0.045-0.101,0.101-0.101h19.439v5.322c0,1.114,0.906,2.02,2.02,2.02h5.323V53.461z M29.605,36.412l1.791,0.542
	c-0.12,0.502-0.31,0.922-0.568,1.26c-0.259,0.336-0.58,0.59-0.963,0.762c-0.384,0.171-0.872,0.257-1.465,0.257
	c-0.718,0-1.306-0.104-1.761-0.313c-0.456-0.209-0.85-0.576-1.18-1.102c-0.331-0.527-0.497-1.2-0.497-2.02
	c0-1.095,0.291-1.937,0.873-2.523c0.582-0.588,1.406-0.882,2.471-0.882c0.833,0,1.488,0.169,1.964,0.506
	c0.477,0.336,0.831,0.854,1.063,1.551l-1.805,0.402c-0.063-0.201-0.129-0.348-0.198-0.442c-0.115-0.156-0.254-0.277-0.419-0.361
	c-0.166-0.084-0.351-0.126-0.556-0.126c-0.463,0-0.818,0.186-1.065,0.559c-0.186,0.276-0.279,0.71-0.279,1.302
	c0,0.733,0.111,1.236,0.334,1.507c0.222,0.272,0.535,0.408,0.938,0.408c0.391,0,0.687-0.109,0.887-0.329
	C29.371,37.149,29.516,36.83,29.605,36.412 M31.775,36.932l1.945-0.122c0.042,0.315,0.128,0.557,0.257,0.722
	c0.21,0.269,0.511,0.402,0.902,0.402c0.292,0,0.517-0.069,0.675-0.206s0.236-0.295,0.236-0.476c0-0.172-0.075-0.325-0.226-0.461
	c-0.151-0.135-0.499-0.263-1.047-0.383c-0.896-0.202-1.535-0.469-1.917-0.803c-0.385-0.334-0.578-0.76-0.578-1.277
	c0-0.34,0.098-0.661,0.296-0.964c0.197-0.302,0.493-0.539,0.888-0.712c0.396-0.173,0.938-0.26,1.627-0.26
	c0.845,0,1.49,0.157,1.933,0.472c0.444,0.314,0.708,0.814,0.792,1.5l-1.926,0.113c-0.052-0.298-0.159-0.514-0.323-0.65
	c-0.164-0.135-0.39-0.203-0.679-0.203c-0.238,0-0.417,0.05-0.537,0.151S33.914,34,33.914,34.144c0,0.105,0.05,0.2,0.15,0.284
	c0.096,0.087,0.325,0.169,0.685,0.244c0.894,0.192,1.534,0.387,1.92,0.584c0.387,0.197,0.668,0.441,0.844,0.733
	s0.264,0.618,0.264,0.979c0,0.424-0.118,0.814-0.352,1.173c-0.235,0.357-0.563,0.63-0.984,0.814
	c-0.421,0.186-0.952,0.277-1.592,0.277c-1.125,0-1.904-0.216-2.337-0.649C32.079,38.15,31.833,37.6,31.775,36.932 M38.413,32.505
	h2.136l1.489,4.76l1.47-4.76h2.074l-2.456,6.614H40.91L38.413,32.505z"/>
</svg>
