<?xml version="1.0" encoding="utf-8"?>
<!DOCTYPE svg PUBLIC "-//W3C//DTD SVG 1.1//EN" "http://www.w3.org/Graphics/SVG/1.1/DTD/svg11.dtd">
<svg version="1.1" xmlns="http://www.w3.org/2000/svg" x="0px" y="0px" width="70px" height="70px" viewBox="0 0 70 70">
<path fill-rule="evenodd" clip-rule="evenodd" fill="#646464" d="M24.964,34.242l2.149,0.649c-0.145,0.603-0.372,1.106-0.683,1.511
	c-0.31,0.404-0.695,0.709-1.156,0.915c-0.46,0.205-1.046,0.309-1.757,0.309c-0.863,0-1.567-0.125-2.114-0.376
	s-1.019-0.691-1.416-1.323c-0.397-0.631-0.596-1.439-0.596-2.424c0-1.313,0.349-2.322,1.048-3.027
	c0.698-0.705,1.687-1.058,2.964-1.058c1,0,1.786,0.202,2.358,0.606s0.997,1.025,1.275,1.862l-2.166,0.482
	c-0.076-0.242-0.155-0.419-0.238-0.531c-0.137-0.188-0.305-0.332-0.503-0.434c-0.198-0.101-0.42-0.151-0.666-0.151
	c-0.556,0-0.981,0.224-1.278,0.671c-0.224,0.332-0.335,0.853-0.335,1.563c0,0.88,0.134,1.483,0.4,1.809
	c0.268,0.326,0.643,0.489,1.126,0.489c0.469,0,0.824-0.132,1.064-0.396C24.682,35.126,24.856,34.744,24.964,34.242z M41.188,37.49
	l2.947-7.937h-2.489l-1.764,5.711l-1.786-5.711h-2.564l2.998,7.937H41.188z M33.44,32.854c-0.464-0.237-1.231-0.47-2.304-0.701
	c-0.433-0.09-0.708-0.188-0.823-0.292c-0.12-0.101-0.179-0.214-0.179-0.341c0-0.173,0.072-0.32,0.216-0.441s0.359-0.182,0.645-0.182
	c0.346,0,0.618,0.081,0.814,0.244c0.197,0.162,0.326,0.422,0.387,0.779l2.312-0.135c-0.101-0.823-0.418-1.423-0.95-1.8
	c-0.533-0.377-1.306-0.566-2.32-0.566c-0.826,0-1.477,0.104-1.952,0.312s-0.83,0.493-1.066,0.855s-0.354,0.748-0.354,1.156
	c0,0.621,0.231,1.131,0.693,1.532c0.458,0.401,1.226,0.722,2.301,0.964c0.657,0.144,1.075,0.298,1.256,0.46
	c0.18,0.163,0.271,0.347,0.271,0.552c0,0.217-0.095,0.407-0.284,0.571s-0.459,0.247-0.81,0.247c-0.469,0-0.83-0.161-1.083-0.482
	c-0.155-0.199-0.258-0.487-0.309-0.866l-2.333,0.146c0.068,0.801,0.363,1.462,0.882,1.982c0.52,0.52,1.455,0.779,2.805,0.779
	c0.769,0,1.406-0.111,1.911-0.333c0.505-0.223,0.899-0.548,1.18-0.978c0.282-0.43,0.422-0.898,0.422-1.407
	c0-0.433-0.105-0.825-0.317-1.175C34.241,33.383,33.904,33.09,33.44,32.854z M55.449,52.337c0,4.966-4.032,8.991-9.006,8.991
	c-3.21,0-6.021-1.682-7.615-4.205H15.429c-1.336,0-2.423-1.088-2.423-2.423V10.393c0-1.336,1.087-2.422,2.423-2.422h24.478
	c0.317,0,0.605,0.128,0.813,0.336c0,0,0,0,0.001,0.001l8.812,8.81c0.217,0.217,0.331,0.506,0.335,0.802
	c0,0.004,0.002,0.007,0.002,0.012v26.093C53.144,45.37,55.449,48.584,55.449,52.337z M41.058,16.659
	c0,0.067,0.055,0.121,0.122,0.121h4.76l-4.882-4.88V16.659z M37.794,54.82c-0.228-0.789-0.356-1.62-0.356-2.483
	c0-4.965,4.032-8.99,9.006-8.99c0.381,0,0.755,0.03,1.124,0.076V19.082H41.18c-1.337,0-2.424-1.087-2.424-2.423v-6.387H15.429
	c-0.067,0-0.121,0.055-0.121,0.121V54.7c0,0.066,0.054,0.12,0.121,0.12H37.794z M49.775,50.748l-2.625-2.5l-0.003,0.001
	c-0.159-0.151-0.39-0.25-0.647-0.25s-0.488,0.099-0.647,0.25l-0.003-0.001l-2.625,2.5l0.003,0.002
	C43.087,50.883,43,51.057,43,51.249c0,0.415,0.392,0.75,0.875,0.75c0.258,0,0.488-0.097,0.647-0.25l0.003,0.003l1.1-1.048v4.546
	c0,0.413,0.392,0.749,0.875,0.749s0.875-0.336,0.875-0.749v-4.546l1.1,1.048l0.003-0.003c0.159,0.153,0.39,0.25,0.647,0.25
	c0.483,0,0.875-0.335,0.875-0.75c0-0.192-0.088-0.366-0.228-0.499L49.775,50.748z"/>
</svg>
