<?xml version="1.0" encoding="utf-8"?>
<!DOCTYPE svg PUBLIC "-//W3C//DTD SVG 1.1//EN" "http://www.w3.org/Graphics/SVG/1.1/DTD/svg11.dtd">
<svg version="1.1" xmlns="http://www.w3.org/2000/svg" x="0px" y="0px"
	 width="42px" height="42px" viewBox="0 0 42 42">
<path fill="#808080" d="M36.271,35.694h-5.025c0.156-0.704,0.243-1.434,0.243-2.186c0-0.018-0.002-0.035-0.002-0.052h4.038
	c1.235,0,2.237-1.002,2.237-2.238V4.475c0-1.235-1.002-2.237-2.237-2.237H6.474c-1.235,0-2.237,1.002-2.237,2.237v26.744
	c0,1.236,1.002,2.238,2.237,2.238h4.772c0,0.017-0.002,0.034-0.002,0.052c0,0.752,0.087,1.481,0.243,2.186H5.729
	C3.669,35.694,2,34.025,2,31.965V3.729C2,1.669,3.669,0,5.729,0h30.542C38.329,0,40,1.669,40,3.729v28.235
	C40,34.025,38.329,35.694,36.271,35.694z M10.45,13.212c0-1.352,1.101-2.452,2.452-2.452c1.353,0,2.454,1.1,2.454,2.453
	c0,1.352-1.101,2.452-2.454,2.452C11.551,15.665,10.45,14.565,10.45,13.212z M32.371,19.478c-0.183,0.199-0.491,0.213-0.691,0.03
	l-5.511-5.051l-3.852,4.218l1.712,1.712c0.18,0.179,0.175,0.456,0.019,0.648c0.08,0.099,0.116,0.22,0.112,0.338
	c0.006,0.097-0.035,0.181-0.085,0.268c-0.014,0.024-0.007,0.053-0.024,0.074c0.075,0.097,0.117,0.206,0.11,0.321
	c0,0.002-0.002,0.003-0.002,0.006c0.011,0.137-0.025,0.274-0.13,0.379c-0.191,0.191-0.501,0.191-0.692,0l-5.041-5.04l-7.983,7.028
	c-0.092,0.082-0.208,0.121-0.322,0.121c-0.135,0-0.271-0.056-0.367-0.166c-0.106-0.12-0.121-0.271-0.09-0.419
	c0.007-0.089,0.032-0.174,0.091-0.251c-0.001,0-0.001,0-0.001,0c-0.072-0.082-0.092-0.179-0.095-0.276
	c-0.005-0.051-0.006-0.093,0.004-0.143c0.013-0.088,0.036-0.177,0.092-0.253c-0.001,0-0.001,0-0.001-0.001
	c-0.179-0.201-0.159-0.512,0.043-0.69l8.328-7.332c0.193-0.17,0.486-0.161,0.669,0.021l2.321,2.321l4.793-5.249
	c0.087-0.096,0.21-0.153,0.34-0.159c0.128-0.003,0.256,0.041,0.352,0.128l5.872,5.383c0.196,0.179,0.208,0.479,0.035,0.679
	c0.065,0.086,0.097,0.188,0.104,0.289c0.005,0.039-0.001,0.07-0.006,0.11c-0.005,0.098-0.027,0.194-0.098,0.275
	c0.064,0.085,0.098,0.179,0.101,0.281C32.499,19.219,32.476,19.364,32.371,19.478z M21.366,24.919c4.727,0,8.558,3.823,8.558,8.54
	S26.093,42,21.366,42c-4.726,0-8.557-3.824-8.557-8.541S16.64,24.919,21.366,24.919z M17.972,33.012
	c0.412,0.411,1.111,0.411,1.564,0l0.657-0.657v4.524c0,0.615,0.495,1.109,1.11,1.109c0.618,0,1.111-0.494,1.111-1.109v-4.524
	l0.657,0.657c0.412,0.411,1.111,0.411,1.564,0c0.411-0.412,0.411-1.11,0-1.563l-2.551-2.551c-0.082-0.082-0.206-0.164-0.37-0.246
	c-0.124-0.042-0.247-0.084-0.371-0.084c-0.042,0-0.042,0-0.042,0c-0.041,0-0.041,0-0.041,0c-0.124,0-0.247,0.042-0.37,0.084
	c-0.124,0.041-0.247,0.122-0.37,0.246l-2.551,2.551C17.561,31.86,17.561,32.56,17.972,33.012z"/>
</svg>
