<?xml version="1.0" encoding="utf-8"?>
<!DOCTYPE svg PUBLIC "-//W3C//DTD SVG 1.1//EN" "http://www.w3.org/Graphics/SVG/1.1/DTD/svg11.dtd">
<svg version="1.1" xmlns="http://www.w3.org/2000/svg" x="0px" y="0px" width="70px" height="70px" viewBox="0 0 70 70">
<circle fill-rule="evenodd" clip-rule="evenodd" fill="#f4f4f4" cx="35" cy="35" r="35"/>
<path fill="#646464" d="M50.358,22.81c-0.003-0.246-0.098-0.487-0.279-0.668l-7.343-7.341c0,0,0,0-0.001-0.001
	c-0.173-0.173-0.413-0.28-0.677-0.28H21.66c-1.114,0-2.02,0.906-2.02,2.019V53.46c0,1.114,0.906,2.019,2.019,2.019H48.34
	c1.114,0,2.02-0.905,2.02-2.019V22.82C50.36,22.816,50.358,22.813,50.358,22.81z M43.017,17.794l4.067,4.066h-3.966
	c-0.056,0-0.101-0.045-0.101-0.101V17.794L43.017,17.794z M48.441,53.461c0,0.056-0.045,0.101-0.101,0.101H21.66
	c-0.056,0-0.101-0.045-0.101-0.101V16.539c0-0.056,0.045-0.101,0.101-0.101h19.439v5.322c0,1.114,0.906,2.02,2.02,2.02h5.323V53.461
	L48.441,53.461z M29.605,36.413l1.791,0.542c-0.12,0.502-0.31,0.922-0.568,1.259s-0.58,0.591-0.963,0.762
	c-0.384,0.171-0.872,0.257-1.464,0.257c-0.719,0-1.306-0.104-1.762-0.313c-0.456-0.209-0.849-0.577-1.18-1.103
	c-0.331-0.526-0.497-1.2-0.497-2.02c0-1.094,0.291-1.935,0.873-2.523c0.582-0.587,1.406-0.881,2.47-0.881
	c0.833,0,1.488,0.168,1.965,0.505s0.831,0.854,1.063,1.552l-1.805,0.402c-0.063-0.202-0.129-0.349-0.198-0.442
	c-0.115-0.156-0.254-0.276-0.419-0.361c-0.166-0.084-0.351-0.126-0.555-0.126c-0.463,0-0.818,0.186-1.065,0.559
	c-0.187,0.276-0.28,0.71-0.28,1.302c0,0.733,0.111,1.236,0.334,1.507c0.223,0.272,0.535,0.408,0.938,0.408
	c0.391,0,0.687-0.11,0.887-0.33C29.37,37.149,29.515,36.831,29.605,36.413z M31.776,36.932l1.944-0.122
	c0.042,0.316,0.128,0.557,0.257,0.722c0.21,0.268,0.511,0.402,0.902,0.402c0.292,0,0.517-0.068,0.674-0.206
	c0.158-0.137,0.237-0.295,0.237-0.476c0-0.172-0.075-0.325-0.226-0.46s-0.499-0.263-1.046-0.383
	c-0.896-0.202-1.536-0.469-1.917-0.803c-0.385-0.334-0.578-0.759-0.578-1.277c0-0.34,0.098-0.661,0.295-0.963
	s0.493-0.54,0.889-0.712c0.396-0.173,0.938-0.26,1.626-0.26c0.845,0,1.49,0.157,1.934,0.472c0.443,0.314,0.708,0.814,0.792,1.5
	l-1.926,0.113c-0.051-0.298-0.159-0.514-0.323-0.649c-0.164-0.136-0.39-0.203-0.679-0.203c-0.238,0-0.417,0.05-0.537,0.151
	c-0.121,0.101-0.181,0.224-0.181,0.368c0,0.105,0.05,0.2,0.149,0.284c0.096,0.087,0.325,0.169,0.686,0.244
	c0.894,0.193,1.533,0.387,1.919,0.584c0.387,0.197,0.668,0.441,0.844,0.733c0.176,0.292,0.264,0.618,0.264,0.979
	c0,0.424-0.118,0.815-0.352,1.173s-0.563,0.629-0.983,0.814c-0.421,0.185-0.952,0.277-1.593,0.277c-1.125,0-1.904-0.216-2.337-0.649
	S31.833,37.599,31.776,36.932z M38.413,32.505h2.136l1.489,4.76l1.47-4.76h2.074l-2.456,6.614H40.91L38.413,32.505z"/>
</svg>