<?xml version="1.0" encoding="utf-8"?>
<!DOCTYPE svg PUBLIC "-//W3C//DTD SVG 1.1//EN" "http://www.w3.org/Graphics/SVG/1.1/DTD/svg11.dtd">
<svg version="1.1" xmlns="http://www.w3.org/2000/svg" x="0px" y="0px" width="100px" height="85px" viewBox="0 0 100 85" style="cursor:pointer">
<path fill-rule="evenodd" clip-rule="evenodd" fill="#FFFFFF" d="M3,0h94c1.657,0,3,1.343,3,3v79c0,1.657-1.343,3-3,3H3
	c-1.657,0-3-1.343-3-3V3C0,1.343,1.343,0,3,0z"/>
<path fill="#646464" d="M38.904,41.44h-5.972c-0.471,0-0.854,0.382-0.854,0.853v8.533c0,0.472,0.382,0.854,0.854,0.854h5.972
	c0.471,0,0.854-0.382,0.854-0.854v-8.533C39.758,41.822,39.375,41.44,38.904,41.44z M38.051,49.973h-4.266v-6.827h4.266V49.973
	L38.051,49.973z"/>
<path fill="#646464" d="M53.409,41.44h-5.973c-0.471,0-0.853,0.382-0.853,0.853v8.533c0,0.472,0.382,0.854,0.853,0.854h5.973
	c0.471,0,0.853-0.382,0.853-0.854v-8.533C54.262,41.822,53.88,41.44,53.409,41.44z M52.556,49.973H48.29v-6.827h4.266V49.973z"/>
<path fill="#646464" d="M53.409,55.093h-5.973c-0.471,0-0.853,0.382-0.853,0.853v8.533c0,0.472,0.382,0.854,0.853,0.854h5.973
	c0.471,0,0.853-0.382,0.853-0.854v-8.533C54.262,55.475,53.88,55.093,53.409,55.093z M52.556,63.626H48.29V56.8h4.266V63.626z"/>
<path fill="#646464" d="M67.061,41.44h-5.973c-0.471,0-0.853,0.382-0.853,0.853v8.533c0,0.472,0.382,0.854,0.853,0.854h5.973
	c0.471,0,0.853-0.382,0.853-0.854v-8.533C67.914,41.822,67.532,41.44,67.061,41.44z M66.208,49.973h-4.266v-6.827h4.266V49.973z"/>
<path fill="#646464" d="M38.904,55.093h-5.972c-0.471,0-0.854,0.382-0.854,0.853v8.533c0,0.472,0.382,0.854,0.854,0.854h5.972
	c0.471,0,0.854-0.382,0.854-0.854v-8.533C39.758,55.475,39.375,55.093,38.904,55.093z M38.051,63.626h-4.266V56.8h4.266V63.626
	L38.051,63.626z"/>
<path fill="#646464" d="M67.061,55.093h-5.973c-0.471,0-0.853,0.382-0.853,0.853v8.533c0,0.472,0.382,0.854,0.853,0.854h5.973
	c0.471,0,0.853-0.382,0.853-0.854v-8.533C67.914,55.475,67.532,55.093,67.061,55.093z M66.208,63.626h-4.266V56.8h4.266V63.626z"/>
<path fill="#646464" d="M72.18,67.893V38.88h0.853c0.471,0,0.854-0.382,0.854-0.854V33.76c0-0.471-0.382-0.854-0.854-0.854H72.18
	v-3.413c0-0.471-0.382-0.853-0.853-0.853H69.62V17.253c0-0.471-0.382-0.853-0.853-0.853H31.226c-0.471,0-0.853,0.382-0.853,0.853
	V28.64h-1.707c-0.471,0-0.853,0.382-0.853,0.854v3.413h-0.854c-0.471,0-0.853,0.382-0.853,0.854v4.267
	c0,0.471,0.382,0.854,0.853,0.854h0.854v29.013H24.4V69.6h4.266h42.661H75.6v-1.707H72.18L72.18,67.893z M29.519,30.346h1.707
	h37.541h1.707v2.56H29.519V30.346z M70.473,67.893H29.519V38.88h40.955L70.473,67.893L70.473,67.893z M28.666,37.173h-0.853v-2.56
	h0.853h42.661h0.853v2.56h-0.853H28.666L28.666,37.173z"/>
<path fill="#FFFFFF" d="M49.431,21.739c-0.17-0.435-0.409-0.811-0.717-1.126c-0.308-0.316-0.679-0.564-1.112-0.744
	c-0.433-0.18-0.913-0.27-1.439-0.27s-1.007,0.089-1.442,0.267c-0.435,0.178-0.807,0.426-1.117,0.744
	c-0.31,0.317-0.549,0.694-0.72,1.129c-0.17,0.435-0.255,0.908-0.255,1.418c0,0.51,0.085,0.983,0.255,1.418
	c0.17,0.435,0.41,0.812,0.72,1.129c0.31,0.317,0.682,0.565,1.117,0.744c0.435,0.178,0.916,0.267,1.442,0.267
	s1.006-0.089,1.439-0.267c0.434-0.178,0.804-0.427,1.112-0.744c0.308-0.318,0.547-0.694,0.717-1.129
	c0.17-0.435,0.255-0.908,0.255-1.418C49.687,22.646,49.602,22.174,49.431,21.739z M48.206,24.185
	c-0.101,0.303-0.247,0.56-0.436,0.771c-0.189,0.21-0.419,0.372-0.691,0.484c-0.271,0.112-0.577,0.168-0.917,0.168
	c-0.34,0-0.647-0.056-0.919-0.168c-0.273-0.112-0.505-0.274-0.696-0.484c-0.191-0.21-0.338-0.467-0.441-0.771
	c-0.103-0.304-0.154-0.646-0.154-1.028c0-0.382,0.051-0.725,0.154-1.028c0.103-0.303,0.25-0.561,0.441-0.773
	c0.191-0.212,0.423-0.374,0.696-0.486c0.272-0.112,0.579-0.168,0.919-0.168c0.34,0,0.646,0.056,0.917,0.168
	c0.271,0.112,0.501,0.274,0.691,0.486s0.334,0.47,0.436,0.773c0.101,0.303,0.151,0.646,0.151,1.028
	C48.357,23.539,48.307,23.881,48.206,24.185z M41.603,19.675v6.963h-1.305v-3.043h-3.264v3.043h-1.305v-6.963h1.305v2.995h3.264
	v-2.995H41.603z M65.657,25.569v1.069h-4.083v-6.963h1.295v5.894H65.657z M55.238,19.675v1.064h-2.094v5.899h-1.295V20.74h-2.104
	v-1.064H55.238z M57.366,20.706v1.931h2.432v0.997h-2.432v1.969h3.086v1.036h-4.391v-6.963h4.391v1.031H57.366z M62,32h4v4h-4V32z
	 M32,36h4v4h-4V36z"/>
</svg>
