<?xml version="1.0" encoding="utf-8"?>
<!DOCTYPE svg PUBLIC "-//W3C//DTD SVG 1.1//EN" "http://www.w3.org/Graphics/SVG/1.1/DTD/svg11.dtd">
<svg version="1.1" xmlns="http://www.w3.org/2000/svg" x="0px" y="0px" width="100px" height="85px" viewBox="0 0 100 85" style="cursor:pointer">
<path fill-rule="evenodd" clip-rule="evenodd" fill="#FFFFFF" d="M3,0h94c1.657,0,3,1.343,3,3v79c0,1.657-1.343,3-3,3H3
	c-1.657,0-3-1.343-3-3V3C0,1.343,1.343,0,3,0z"/>
<path fill="#646464" d="M76.934,39.171H60.782v-1.934c0-1.704-1.385-3.09-3.087-3.09s-3.087,1.386-3.087,3.09v1.934H38.456
	c-1.163,0-2.123,0.888-2.238,2.022c-0.007,0.076-0.012,0.153-0.012,0.23v14.711c0,1.242,1.01,2.252,2.25,2.252h2.724v6.133h-11.74
	V34.782l19.642-13.079l19.643,13.079v2.375c0,0.462,0.374,0.836,0.835,0.836c0.461,0,0.835-0.374,0.835-0.836v-1.263l2.531,1.685
	c0.958,0.638,2.195,0.638,3.153,0c0.795-0.529,1.27-1.416,1.27-2.372c0-0.956-0.475-1.842-1.27-2.372L49.891,15.399
	c-0.492-0.327-1.126-0.327-1.618,0L33.079,25.517c-0.384,0.255-0.488,0.774-0.233,1.159s0.774,0.489,1.158,0.233l15.078-10.04
	l26.071,17.359c0.333,0.222,0.524,0.579,0.524,0.98s-0.191,0.758-0.524,0.98c-0.396,0.264-0.907,0.264-1.303,0L49.891,20.234
	c-0.492-0.327-1.126-0.327-1.618,0l-23.96,15.953c-0.396,0.263-0.907,0.264-1.302,0c-0.333-0.222-0.525-0.579-0.525-0.98
	s0.191-0.758,0.525-0.98l6.673-4.443c0.384-0.255,0.488-0.774,0.233-1.159s-0.774-0.489-1.158-0.233l-6.673,4.443
	c-0.795,0.529-1.27,1.416-1.27,2.372s0.475,1.843,1.27,2.372c0.479,0.319,1.027,0.478,1.576,0.478s1.098-0.159,1.576-0.478
	l2.531-1.685V64.52h-3.2c-1.389,0-2.52,1.131-2.52,2.522s1.13,2.522,2.52,2.522h49.025c1.39,0,2.52-1.131,2.52-2.522
	s-1.13-2.522-2.52-2.522h-3.2V60.4c0-0.461-0.374-0.836-0.835-0.836c-0.461,0-0.835,0.375-0.835,0.836v4.12h-7.942v-6.133h16.152
	c1.241,0,2.25-1.01,2.25-2.252V41.424C79.184,40.182,78.175,39.171,76.934,39.171z M56.278,37.237c0-0.782,0.635-1.419,1.417-1.419
	c0.781,0,1.417,0.637,1.417,1.419v1.934h-2.834V37.237z M54.607,67.892H24.569c-0.468,0-0.849-0.381-0.849-0.85
	s0.381-0.85,0.849-0.85h30.039V67.892z M54.607,64.52H42.85v-6.133h11.757V64.52z M59.112,67.892h-2.834v-9.505h2.834V67.892z
	 M73.594,66.192L73.594,66.192c0.468,0,0.85,0.381,0.85,0.85s-0.381,0.85-0.85,0.85H60.782v-1.7H73.594L73.594,66.192z
	 M50.048,52.438c0,0.4-0.52,0.824-0.98,0.824c-0.218,0-0.423-0.133-0.544-0.375l-1.718-3.343h-1.017v3.161
	c0,0.327-0.387,0.497-0.786,0.497c-0.387,0-0.787-0.169-0.787-0.497v-7.873c0-0.254,0.206-0.484,0.508-0.484h2.396
	c1.585,0,2.868,0.605,2.868,2.531c0,1.393-0.678,2.144-1.585,2.422l1.585,2.943C50.037,52.305,50.048,52.391,50.048,52.438z
	 M47.12,48.309h-1.331v-2.58h1.331c0.787,0,1.295,0.339,1.295,1.296S47.907,48.309,47.12,48.309z M56.848,52.523
	c0,0.327-0.157,0.678-0.496,0.678h-4.307c-0.351,0-0.69-0.169-0.69-0.497v-7.86c0-0.327,0.339-0.497,0.69-0.497h4.307
	c0.339,0,0.496,0.352,0.496,0.678c0,0.375-0.181,0.703-0.496,0.703v0h-3.424v2.422h1.839c0.314,0,0.496,0.303,0.496,0.63
	c0,0.279-0.157,0.605-0.496,0.605h-1.839v2.435h3.424C56.667,51.821,56.848,52.148,56.848,52.523z M63.877,44.833v7.872
	c0,0.327-0.399,0.497-0.787,0.497c-0.375,0-0.702-0.121-0.907-0.497l-2.602-4.869v4.869c0,0.327-0.399,0.497-0.787,0.497
	c-0.399,0-0.787-0.169-0.787-0.497v-7.86c0-0.339,0.388-0.497,0.787-0.497c0.569,0,0.799,0.121,1.174,0.836l2.335,4.517v-4.869
	c0-0.339,0.387-0.484,0.786-0.484C63.479,44.348,63.877,44.494,63.877,44.833z M71.101,45.051c0,0.375-0.182,0.714-0.496,0.714
	h-1.767v6.94c0,0.327-0.399,0.497-0.787,0.497c-0.399,0-0.787-0.169-0.787-0.497v-6.94h-1.778c-0.314,0-0.496-0.327-0.496-0.714
	c0-0.339,0.157-0.703,0.496-0.703h5.118C70.943,44.348,71.101,44.712,71.101,45.051z"/>
<path fill="#646464" d="M49.082,25.384c-2.9,0-5.26,2.362-5.26,5.265c0,2.904,2.36,5.266,5.26,5.266
	c2.901,0,5.261-2.362,5.261-5.266C54.342,27.746,51.982,25.384,49.082,25.384z M48.247,34.144c-1.311-0.314-2.345-1.35-2.657-2.663
	h2.657V34.144z M48.247,29.81h-2.655c0.314-1.31,1.347-2.342,2.655-2.655V29.81z M49.917,27.154
	c1.309,0.313,2.341,1.346,2.655,2.655h-2.655V27.154z M49.917,34.144v-2.663h2.657C52.261,32.794,51.228,33.83,49.917,34.144z"/>
</svg>
