<?xml version="1.0" encoding="utf-8"?>
<!-- Generator: Adobe Illustrator 15.1.0, SVG Export Plug-In . SVG Version: 6.00 Build 0)  -->
<!DOCTYPE svg PUBLIC "-//W3C//DTD SVG 1.1//EN" "http://www.w3.org/Graphics/SVG/1.1/DTD/svg11.dtd">
<svg version="1.1" id="圖層_1" xmlns="http://www.w3.org/2000/svg" xmlns:xlink="http://www.w3.org/1999/xlink" x="0px" y="0px"
	 width="100px" height="85px" viewBox="0 0 100 85" enable-background="new 0 0 100 85" xml:space="preserve">
<path fill-rule="evenodd" clip-rule="evenodd" fill="#FFFFFF" d="M3,0h94c1.657,0,3,1.343,3,3v79c0,1.657-1.343,3-3,3H3
	c-1.657,0-3-1.343-3-3V3C0,1.343,1.343,0,3,0z"/>
<path fill="#646464" d="M74.432,30.242c0.678-0.249,1.125-0.899,1.117-1.621v-8.662c0-1.414-1.146-2.56-2.56-2.56H49.101
	c-1.414,0-2.56,1.146-2.56,2.56v4.561h-21.33c-0.471,0-0.853,0.381-0.853,0.853v33.253c0,0.471,0.382,0.853,0.853,0.853h21.33v6.56
	c0,1.414,1.146,2.56,2.56,2.56H72.99c1.414,0,2.56-1.146,2.56-2.56V33.485c0.008-0.722-0.439-1.372-1.117-1.621
	c-0.351-0.115-0.587-0.442-0.587-0.811C73.845,30.684,74.082,30.357,74.432,30.242z M26.064,57.773V26.226h24.743
	c0.471,0,0.853,0.382,0.853,0.854v29.84c0,0.472-0.382,0.854-0.853,0.854H26.064L26.064,57.773z M72.137,31.053
	c0,1.089,0.683,2.061,1.707,2.432V66.04c0,0.472-0.382,0.854-0.853,0.854h-23.89c-0.471,0-0.854-0.382-0.854-0.854v-6.56h2.56
	c1.414,0,2.56-1.146,2.56-2.56v-4.672l5.012-0.973l0.092,2.464l-2.408,2.262c-0.661,0.518-0.874,1.426-0.512,2.184
	c0.366,0.787,1.229,1.214,2.076,1.028l1.109-0.231l0.399,1.365c0.238,0.854,1.013,1.446,1.899,1.451
	c0.887,0.005,1.668-0.579,1.916-1.431l0.387-1.301l1.151,0.256c0.817,0.169,1.645-0.231,2.021-0.976
	c0.375-0.745,0.205-1.648-0.417-2.205l-2.474-2.397l0.093-2.475l6.659,1.289c0.591,0.165,1.219-0.085,1.536-0.611
	c0.354-0.574,0.288-1.313-0.162-1.816c-0.035-0.038-0.072-0.072-0.112-0.104l-7.423-5.711l0.282-3.724
	c-0.006-0.639-0.271-1.249-0.736-1.687l-1.311-1.309c-0.783-0.757-2.025-0.755-2.805,0.006l-1.289,1.29
	c-0.486,0.458-0.758,1.1-0.75,1.768l0.279,3.66l-4.513,3.475V27.08c0-1.414-1.146-2.56-2.56-2.56h-2.56v-4.561
	c0-0.471,0.382-0.853,0.853-0.853H72.99c0.472,0,0.854,0.382,0.854,0.853l0.042,8.663C72.842,28.973,72.138,29.951,72.137,31.053z
	 M59.618,44.67l-0.313-4.074c0.009-0.186,0.095-0.36,0.236-0.48l1.299-1.297c0.111-0.11,0.289-0.114,0.404-0.007l1.322,1.323
	c0.117,0.104,0.196,0.244,0.222,0.398l-0.315,4.139c-0.013,0.239,0.073,0.472,0.238,0.645c0.055,0.06,0.119,0.112,0.19,0.153
	l6.797,5.229l-6.639-1.289c-0.245-0.048-0.498,0.014-0.693,0.169c-0.195,0.155-0.313,0.388-0.322,0.637l-0.145,3.848
	c-0.01,0.242,0.083,0.476,0.256,0.645l2.79,2.7c0.057,0.037,0.073,0.113,0.037,0.17c-0.046,0.097-0.114,0.085-0.136,0.078
	l-1.911-0.427c-0.438-0.097-0.875,0.16-1.003,0.59l-0.615,2.065c-0.042,0.112-0.15,0.187-0.271,0.186
	c-0.12-0.001-0.227-0.077-0.268-0.19l-0.623-2.133c-0.124-0.428-0.557-0.688-0.993-0.597l-1.877,0.392
	c-0.076,0.024-0.157-0.013-0.189-0.085c-0.029-0.062-0.01-0.093,0.085-0.17l2.739-2.569c0.182-0.168,0.281-0.406,0.273-0.653
	l-0.146-3.849c-0.01-0.249-0.127-0.481-0.322-0.637c-0.194-0.156-0.448-0.218-0.693-0.17l-5.665,1.102v-0.56l5.782-4.452
	c0.092-0.045,0.175-0.107,0.244-0.184C59.554,45.14,59.636,44.907,59.618,44.67z M55.926,30.2c0.471,0,0.853,0.382,0.853,0.854
	s-0.382,0.853-0.853,0.853c-0.472,0-0.854-0.382-0.854-0.853S55.455,30.2,55.926,30.2z M59.339,30.2
	c0.471,0,0.853,0.382,0.853,0.854s-0.382,0.853-0.853,0.853s-0.853-0.382-0.853-0.853S58.868,30.2,59.339,30.2z M62.751,30.2
	c0.471,0,0.854,0.382,0.854,0.854s-0.382,0.853-0.854,0.853s-0.853-0.382-0.853-0.853S62.28,30.2,62.751,30.2z M66.165,30.2
	c0.471,0,0.853,0.382,0.853,0.854s-0.382,0.853-0.853,0.853s-0.854-0.382-0.854-0.853S65.693,30.2,66.165,30.2z M69.577,30.2
	c0.471,0,0.853,0.382,0.853,0.854s-0.382,0.853-0.853,0.853s-0.853-0.382-0.853-0.853S69.106,30.2,69.577,30.2z"/>
<path fill="#646464" d="M38.862,29.346c-5.184,0-9.385,4.203-9.385,9.387s4.202,9.387,9.385,9.387c5.183,0,9.385-4.203,9.385-9.387
	C48.241,33.551,44.043,29.353,38.862,29.346z M35.306,31.933c-0.964,1.838-1.491,3.873-1.54,5.947h-2.533
	C31.521,35.344,33.046,33.117,35.306,31.933z M38.862,46.413c-3.908-0.006-7.19-2.943-7.629-6.827h2.538
	c0.051,1.235,0.244,2.46,0.576,3.65c0.136,0.447,0.605,0.702,1.054,0.572c0.448-0.13,0.709-0.596,0.585-1.046
	c-0.29-1.036-0.461-2.102-0.512-3.176h2.535v4.267c0,0.471,0.382,0.854,0.854,0.854c0.471,0,0.853-0.382,0.853-0.854v-4.267h2.537
	C42.044,43.65,40.375,46.413,38.862,46.413z M42.418,45.533c0.964-1.837,1.491-3.873,1.541-5.947h2.532
	C46.204,42.122,44.678,44.35,42.418,45.533z M43.953,37.879c-0.051-1.234-0.244-2.459-0.576-3.65
	c-0.135-0.447-0.605-0.702-1.053-0.572c-0.449,0.13-0.71,0.597-0.585,1.047c0.29,1.036,0.461,2.102,0.512,3.176h-2.535v-4.267
	c0-0.471-0.382-0.853-0.853-0.853s-0.854,0.382-0.854,0.853v4.267h-2.537c0.208-4.063,1.877-6.826,3.391-6.826
	c3.908,0.005,7.19,2.942,7.628,6.826H43.953z M44.834,51.386c0,0.472-0.382,0.854-0.854,0.854H32.89
	c-0.471,0-0.853-0.382-0.853-0.854c0-0.471,0.382-0.853,0.853-0.853h11.092C44.453,50.533,44.834,50.915,44.834,51.386z
	 M41.421,54.653c0,0.472-0.382,0.854-0.853,0.854h-4.266c-0.472,0-0.854-0.382-0.854-0.854c0-0.471,0.382-0.853,0.854-0.853h4.266
	C41.04,53.8,41.422,54.182,41.421,54.653z"/>
<path fill-rule="evenodd" clip-rule="evenodd" fill="#FFFFFF" d="M45,22h5v2h-5V22z M45,60h5v2h-5V60z"/>
</svg>
