<?xml version="1.0" encoding="utf-8"?>
<!-- Generator: Adobe Illustrator 15.1.0, SVG Export Plug-In . SVG Version: 6.00 Build 0)  -->
<!DOCTYPE svg PUBLIC "-//W3C//DTD SVG 1.1//EN" "http://www.w3.org/Graphics/SVG/1.1/DTD/svg11.dtd">
<svg version="1.1" id="圖層_1" xmlns="http://www.w3.org/2000/svg" xmlns:xlink="http://www.w3.org/1999/xlink" x="0px" y="0px"
	 width="100px" height="85px" viewBox="0 0 100 85" enable-background="new 0 0 100 85" xml:space="preserve">
<path fill-rule="evenodd" clip-rule="evenodd" fill="#FFFFFF" d="M3,0h94c1.657,0,3,1.343,3,3v79c0,1.657-1.343,3-3,3H3
	c-1.657,0-3-1.343-3-3V3C0,1.343,1.343,0,3,0z"/>
<path fill="#646464" d="M74.985,22.908v41.983c0,1.902-1.548,3.45-3.452,3.45h-11.06c-0.538,0-0.975-0.437-0.975-0.974
	c0-0.538,0.437-0.974,0.975-0.974h11.06c0.829,0,1.502-0.673,1.502-1.501V22.908c0-0.464-0.213-0.896-0.585-1.185
	c-0.425-0.331-0.501-0.943-0.171-1.367c0.331-0.425,0.943-0.501,1.368-0.171C74.498,20.846,74.985,21.839,74.985,22.908z
	 M62.596,30.237c-3.413-0.476-6.048-3.411-6.048-6.951v-8.287c0-0.538,0.437-0.974,0.975-0.974h12.096
	c0.538,0,0.975,0.437,0.975,0.974v8.287c0,3.539-2.635,6.475-6.048,6.951v27.312c0,0.538-0.437,0.974-0.975,0.974
	c-0.539,0-0.975-0.436-0.975-0.974V30.237L62.596,30.237z M63.57,28.356c2.797,0,5.073-2.274,5.073-5.07v-7.313h-2.027v8.263
	c0,0.538-0.436,0.974-0.975,0.974c-0.538,0-0.975-0.436-0.975-0.974v-8.263h-2.193v8.263c0,0.538-0.437,0.974-0.975,0.974
	c-0.538,0-0.975-0.436-0.975-0.974v-8.263h-2.027v7.313C58.497,26.082,60.772,28.356,63.57,28.356z M43.821,37.86
	c0.539,0,0.975-0.436,0.975-0.974V22.908c0-0.827,0.674-1.5,1.502-1.5h7.639c0.539,0,0.975-0.437,0.975-0.975
	c0-0.538-0.437-0.974-0.975-0.974h-7.639c-1.903,0-3.452,1.547-3.452,3.449v13.978C42.846,37.424,43.283,37.86,43.821,37.86z
	 M29.516,66.318c0,0.538-0.437,0.974-0.975,0.974c-1.944,0-3.526-1.581-3.526-3.523V36.886c0-2.608,1.883-4.786,4.362-5.245V22.87
	c-0.376-0.135-0.646-0.495-0.646-0.917v-7.049c0-0.538,0.436-0.974,0.975-0.974h6.114c0.539,0,0.975,0.436,0.975,0.974v7.049
	c0,0.422-0.27,0.782-0.646,0.917v8.771c2.479,0.459,4.362,2.636,4.362,5.245c0,0.538-0.437,0.974-0.975,0.974
	s-0.975-0.436-0.975-0.974c0-1.867-1.52-3.386-3.388-3.386c-0.539,0-0.975-0.436-0.975-0.974v-9.599h-2.875v9.599
	c0,0.538-0.437,0.974-0.975,0.974c-1.868,0-3.388,1.519-3.388,3.386v26.883c0,0.869,0.707,1.576,1.577,1.576
	C29.079,65.344,29.516,65.78,29.516,66.318z M30.681,20.979h4.165v-5.101h-4.165V20.979z M69.472,55.994h-0.255
	c-0.539,0-0.975,0.436-0.975,0.974c0,0.538,0.437,0.974,0.975,0.974h0.255c0.539,0,0.975-0.437,0.975-0.974
	C70.447,56.43,70.011,55.994,69.472,55.994z M58.281,46.77v2.071c0,0.538-0.436,0.974-0.974,0.974h-0.378v17.476
	c0,2.635-2.145,4.778-4.781,4.778H36.104c-2.636,0-4.781-2.144-4.781-4.778V49.815h-0.378c-0.538,0-0.975-0.436-0.975-0.974V46.77
	c0-0.386,0.229-0.736,0.582-0.892l4.577-2.016v-3.306c0-0.539,0.437-0.975,0.975-0.975h16.044c0.539,0,0.975,0.436,0.975,0.975
	v3.306l4.577,2.016C58.053,46.034,58.281,46.384,58.281,46.77z M37.078,43.725h14.095V41.53H37.078V43.725z M54.979,49.815H33.272
	v17.476c0,1.561,1.27,2.83,2.832,2.83h16.044c1.562,0,2.832-1.27,2.832-2.83V66.92H36.111c-0.539,0-0.975-0.436-0.975-0.974
	s0.437-0.974,0.975-0.974h18.868V54.419H36.111c-0.539,0-0.975-0.436-0.975-0.974s0.437-0.974,0.975-0.974h18.868V49.815z
	 M56.332,47.405l-3.933-1.732H35.853l-3.933,1.732v0.462h24.412V47.405z M63.698,61.005h-0.256c-0.538,0-0.975,0.436-0.975,0.974
	c0,0.538,0.437,0.974,0.975,0.974h0.256c0.538,0,0.974-0.436,0.974-0.974C64.672,61.441,64.236,61.005,63.698,61.005z
	 M69.472,61.005h-0.255c-0.539,0-0.975,0.436-0.975,0.974c0,0.538,0.437,0.974,0.975,0.974h0.255c0.539,0,0.975-0.436,0.975-0.974
	C70.447,61.441,70.011,61.005,69.472,61.005z"/>
</svg>
