<?xml version="1.0" encoding="utf-8"?>
<!DOCTYPE svg PUBLIC "-//W3C//DTD SVG 1.1//EN" "http://www.w3.org/Graphics/SVG/1.1/DTD/svg11.dtd">
<svg version="1.1" xmlns="http://www.w3.org/2000/svg" x="0px" y="0px" width="100px" height="85px" viewBox="0 0 100 85" style="cursor:pointer">
<path fill="#FFFFFF" d="M3,0h94c1.656,0,3,1.343,3,3v79c0,1.656-1.344,3-3,3H3c-1.657,0-3-1.344-3-3V3C0,1.343,1.343,0,3,0z"/>
<path fill="#FEAD13" d="M84,71.5H56c-1.656,0-3-1.344-3-3v-40c0-1.657,1.344-3,3-3h28c1.656,0,3,1.343,3,3v40
	C87,70.156,85.656,71.5,84,71.5z M61,61.5h15v-2H61V61.5z M76.855,41.896l-5.711-5.721c-0.439-0.44-0.881-0.878-1.758-0.878h-5.714
	c-0.438,0-0.877,0.438-0.877,0.878v5.721c0,0.878,0.438,1.318,0.877,1.759l5.714,5.718c0.219,0.222,0.549,0.331,0.877,0.331
	c0.332,0,0.661-0.109,0.881-0.331l5.711-5.718C77.295,43.214,77.295,42.333,76.855,41.896z M79,55.5H61v2h18V55.5z M67.574,41.677
	c-0.883,0-1.598-0.716-1.598-1.6c0-0.882,0.715-1.6,1.598-1.6c0.88,0,1.598,0.718,1.598,1.6
	C69.172,40.961,68.454,41.677,67.574,41.677z M45,71.5H17c-1.657,0-3-1.344-3-3v-40c0-1.657,1.343-3,3-3h28c1.657,0,3,1.343,3,3v40
	C48,70.156,46.657,71.5,45,71.5z M22,61.5h15v-2H22V61.5z M37.856,41.896l-5.711-5.721c-0.44-0.44-0.879-0.878-1.757-0.878h-5.713
	c-0.438,0-0.877,0.438-0.877,0.878v5.721c0,0.878,0.44,1.318,0.877,1.759l5.713,5.718c0.219,0.222,0.549,0.331,0.877,0.331
	c0.33,0,0.661-0.109,0.879-0.331l5.711-5.718C38.296,43.214,38.296,42.333,37.856,41.896z M40,55.5H22v2h18V55.5z M28.574,41.677
	c-0.883,0-1.598-0.716-1.598-1.6c0-0.882,0.715-1.6,1.598-1.6c0.88,0,1.598,0.718,1.598,1.6
	C30.172,40.961,29.454,41.677,28.574,41.677z"/>
<path fill-rule="evenodd" clip-rule="evenodd" fill="#D1D1D1" d="M97,85H3c-1.657,0-3-1.344-3-3v-6h100v6
	C100,83.656,98.656,85,97,85z M91,43.987l7.014,3.513L91,51.013V43.987z M1.894,47.5L8.5,43.894v7.213L1.894,47.5z M0,3
	c0-1.657,1.343-3,3-3h94c1.656,0,3,1.343,3,3v17H0V3z"/>
</svg>
