<?xml version="1.0" encoding="utf-8"?>
<!DOCTYPE svg PUBLIC "-//W3C//DTD SVG 1.1//EN" "http://www.w3.org/Graphics/SVG/1.1/DTD/svg11.dtd">
<svg version="1.1" xmlns="http://www.w3.org/2000/svg" x="0px" y="0px"
	 width="80px" height="80px" viewBox="0 0 80 80">
<circle fill="#F4F4F4" cx="40" cy="40" r="40"/>
<path fill="#808080" d="M47.727,33.531H32.393c-1.612,0-2.92,1.296-2.92,2.896l1.584,16.674c0,1.604,1.306,2.898,2.92,2.898h12.417
	c1.608,0,2.918-1.294,2.918-2.898l1.34-16.674C50.65,34.828,49.343,33.531,47.727,33.531z M36.167,50.929
	c0,0.797-0.654,1.445-1.461,1.445c-0.805,0-1.459-0.649-1.459-1.445V37.878c0-0.799,0.654-1.451,1.459-1.451
	c0.808,0,1.461,0.652,1.461,1.451V50.929L36.167,50.929z M41.278,50.929c0,0.797-0.653,1.445-1.461,1.445
	c-0.805,0-1.459-0.649-1.459-1.445V37.878c0-0.799,0.654-1.451,1.459-1.451c0.808,0,1.461,0.652,1.461,1.451V50.929z M46.394,50.929
	c0,0.797-0.655,1.445-1.463,1.445c-0.807,0-1.461-0.649-1.461-1.445V37.878c0-0.799,0.654-1.451,1.461-1.451
	c0.808,0,1.463,0.652,1.463,1.451V50.929z M31.613,32.082l17.686-4.515c0.975-0.249,1.563-1.236,1.308-2.205
	c-0.25-0.969-1.242-1.552-2.224-1.306l-5.435,1.387c-0.504-0.74-1.429-1.13-2.354-0.896l-2.122,0.544
	c-0.921,0.236-1.546,1.021-1.626,1.911l-6.142,1.569c-0.977,0.248-1.564,1.237-1.313,2.207
	C29.642,31.748,30.638,32.329,31.613,32.082z"/>
</svg>
