<?xml version="1.0" encoding="utf-8"?>
<!DOCTYPE svg PUBLIC "-//W3C//DTD SVG 1.1//EN" "http://www.w3.org/Graphics/SVG/1.1/DTD/svg11.dtd">
<svg version="1.1" xmlns="http://www.w3.org/2000/svg" x="0px" y="0px" width="45px" height="55px" viewBox="0 0 45 55" style="cursor:pointer">
<path fill-rule="evenodd" clip-rule="evenodd" fill="#BCBBBB" d="M5-0.001h35c2.761,0,5,2.239,5,5v35c0,2.762-2.239,5-5,5H5
	c-2.762,0-5-2.239-5-5v-35C0,2.238,2.238-0.001,5-0.001z M6,2.999h33c1.657,0,3,1.343,3,3v33c0,1.657-1.343,3-3,3H6
	c-1.657,0-3-1.343-3-3v-33C3,4.342,4.343,2.999,6,2.999z M11.645,18.145c1.813,0,3.288-1.475,3.288-3.288
	c0-1.814-1.475-3.289-3.288-3.289c-1.814,0-3.289,1.475-3.289,3.288S9.831,18.145,11.645,18.145z M37.767,21.423
	c0.217-0.267,0.197-0.658-0.061-0.893l-7.873-7.217c-0.129-0.117-0.3-0.176-0.473-0.172c-0.174,0.008-0.338,0.084-0.455,0.213
	l-6.426,7.038l-3.112-3.112c-0.246-0.245-0.638-0.257-0.898-0.029L7.305,27.082c-0.266,0.233-0.292,0.632-0.072,0.904
	c-0.097,0.123-0.146,0.267-0.142,0.417c-0.019,0.169,0.027,0.342,0.142,0.483c-0.097,0.123-0.146,0.267-0.142,0.417
	c-0.02,0.177,0.027,0.36,0.154,0.505c0.13,0.147,0.311,0.223,0.493,0.223c0.154,0,0.308-0.054,0.433-0.164l10.703-9.422l6.759,6.758
	c0.257,0.257,0.671,0.257,0.928,0c0.14-0.14,0.197-0.326,0.184-0.509c0.012-0.16-0.038-0.318-0.145-0.45
	c0.106-0.132,0.156-0.29,0.145-0.45c0.012-0.16-0.039-0.318-0.145-0.45c0.207-0.258,0.2-0.63-0.039-0.869l-2.294-2.294l5.165-5.656
	l7.388,6.773c0.267,0.245,0.682,0.226,0.927-0.041c0.131-0.143,0.181-0.328,0.164-0.507c0.006-0.153-0.043-0.301-0.144-0.427
	c0.112-0.138,0.16-0.306,0.144-0.473C37.917,21.697,37.867,21.549,37.767,21.423z"/>
<circle fill-rule="evenodd" clip-rule="evenodd" fill="#BCBBBB" cx="23" cy="42" r="12.094"/>
<path fill="#FFFFFF" d="M24.007,35.566c-0.116-0.116-0.291-0.232-0.523-0.349c-0.174-0.058-0.348-0.116-0.522-0.116
	c-0.058,0-0.058,0-0.058,0c-0.058,0-0.058,0-0.058,0c-0.174,0-0.349,0.058-0.522,0.116c-0.174,0.058-0.349,0.174-0.522,0.349
	l-3.6,3.599c-0.581,0.58-0.581,1.567,0,2.206c0.581,0.581,1.568,0.581,2.206,0l0.929-0.929v6.385c0,0.871,0.696,1.567,1.567,1.567
	c0.871,0,1.567-0.697,1.567-1.567v-6.385l0.929,0.929c0.581,0.581,1.567,0.581,2.206,0c0.581-0.581,0.581-1.567,0-2.206
	L24.007,35.566z"/>
</svg>
