<?xml version="1.0" encoding="utf-8"?>
<!DOCTYPE svg PUBLIC "-//W3C//DTD SVG 1.1//EN" "http://www.w3.org/Graphics/SVG/1.1/DTD/svg11.dtd">
<svg version="1.1" xmlns="http://www.w3.org/2000/svg" x="0px" y="0px" width="70px" height="70px" viewBox="0 0 70 70">
<circle fill="#F4F4F4" cx="35" cy="35" r="35"/>
<path fill="#646464" d="M49.996,23.096c0-0.24-0.094-0.476-0.27-0.653l-7.172-7.168v-0.001C42.387,15.105,42.15,15,41.893,15H21.973
	C20.885,15,20,15.885,20,16.972V53.03c0,1.087,0.884,1.97,1.972,1.97h26.055C49.117,55,50,54.117,50,53.03V23.105
	C50,23.102,49.996,23.1,49.996,23.096z M42.83,18.197l3.973,3.971H42.93c-0.055,0-0.1-0.043-0.1-0.098V18.197L42.83,18.197z
	 M48.129,53.03c0,0.053-0.047,0.098-0.102,0.098H21.973c-0.055,0-0.1-0.045-0.1-0.098V16.972c0-0.055,0.044-0.099,0.1-0.099h18.984
	v5.198c0,1.087,0.883,1.972,1.973,1.972h5.199V53.03L48.129,53.03z M29.308,39.267c-0.195,0.215-0.484,0.322-0.867,0.322
	c-0.393,0-0.699-0.132-0.917-0.398c-0.217-0.266-0.326-0.757-0.326-1.472c0-0.578,0.091-1.001,0.273-1.272
	c0.24-0.363,0.587-0.545,1.039-0.545c0.201,0,0.38,0.041,0.543,0.123c0.161,0.082,0.297,0.199,0.41,0.352
	c0.066,0.093,0.131,0.236,0.193,0.433l1.762-0.392c-0.226-0.683-0.572-1.188-1.038-1.515c-0.466-0.33-1.105-0.494-1.919-0.494
	c-1.04,0-1.844,0.287-2.413,0.86c-0.568,0.574-0.852,1.395-0.852,2.463c0,0.801,0.161,1.459,0.485,1.973
	c0.322,0.515,0.707,0.874,1.152,1.077c0.445,0.206,1.018,0.308,1.72,0.308c0.579,0,1.055-0.085,1.43-0.254
	c0.375-0.166,0.688-0.414,0.94-0.744c0.253-0.329,0.438-0.736,0.555-1.228l-1.749-0.53C29.645,38.742,29.502,39.054,29.308,39.267z
	 M32.57,40.452c0.423,0.423,1.183,0.637,2.282,0.637c0.625,0,1.144-0.092,1.556-0.273c0.412-0.18,0.73-0.444,0.959-0.793
	c0.229-0.35,0.346-0.733,0.346-1.146c0-0.354-0.086-0.672-0.26-0.957c-0.172-0.283-0.445-0.523-0.824-0.716
	c-0.375-0.192-1.002-0.383-1.875-0.571c-0.35-0.073-0.575-0.152-0.669-0.236c-0.097-0.082-0.145-0.177-0.145-0.278
	c0-0.141,0.057-0.261,0.174-0.359c0.117-0.098,0.294-0.146,0.525-0.146c0.282,0,0.504,0.063,0.665,0.196
	c0.159,0.132,0.265,0.345,0.313,0.634l1.882-0.109c-0.082-0.669-0.34-1.158-0.773-1.466c-0.434-0.306-1.062-0.459-1.886-0.459
	c-0.674,0-1.204,0.084-1.59,0.253c-0.386,0.168-0.674,0.4-0.868,0.695c-0.193,0.296-0.289,0.609-0.289,0.94
	c0,0.507,0.188,0.923,0.564,1.247c0.374,0.327,0.998,0.589,1.873,0.785c0.535,0.117,0.875,0.241,1.022,0.374
	c0.146,0.132,0.221,0.281,0.221,0.45c0,0.175-0.078,0.33-0.23,0.464c-0.156,0.136-0.376,0.202-0.66,0.202
	c-0.381,0-0.677-0.132-0.881-0.395c-0.126-0.16-0.211-0.396-0.252-0.705l-1.898,0.12C31.908,39.492,32.147,40.031,32.57,40.452z
	 M40.771,40.978h2.164l2.4-6.46h-2.027l-1.438,4.649l-1.453-4.649h-2.086L40.771,40.978z"/>
</svg>
