<?xml version="1.0" encoding="utf-8"?>
<!DOCTYPE svg PUBLIC "-//W3C//DTD SVG 1.1//EN" "http://www.w3.org/Graphics/SVG/1.1/DTD/svg11.dtd">
<svg version="1.1" xmlns="http://www.w3.org/2000/svg" x="0px" y="0px" width="70px" height="70px" viewBox="0 0 70 70">
<circle fill-rule="evenodd" clip-rule="evenodd" fill="#FFFFFF" cx="35" cy="35" r="35"/>
<path fill="#646464" d="M20.816,36.223h0.325c0.749,0,1.388,0.01,1.24,1c-0.143,0.958-0.833,0.958-1.533,0.958h-0.326L20.816,36.223
	z M17.954,42.429h1.932l0.39-2.604h1.095c1.686,0,2.753-0.813,3.031-2.666c0.27-1.801-0.716-2.582-2.314-2.582h-2.957L17.954,42.429
	z M32.453,34.955l-0.493,3.286h0.017c0.414-0.482,0.862-0.705,1.441-0.705c1.058,0,1.46,0.739,1.292,1.857l-0.405,2.7h-1.481
	l0.339-2.262c0.078-0.516,0.084-1.049-0.51-1.049c-0.586,0-0.854,0.533-0.931,1.049l-0.339,2.262h-1.481l1.07-7.138H32.453z
	 M37.805,38.894c0.603,0,0.884,0.456,0.803,0.998c-0.084,0.559-0.499,0.989-1.101,0.989c-0.603,0-0.888-0.43-0.804-0.989
	C36.784,39.35,37.202,38.894,37.805,38.894z M38.008,37.536c-1.343,0-2.643,0.852-2.869,2.356c-0.225,1.505,0.829,2.348,2.164,2.348
	c1.343,0,2.643-0.852,2.867-2.348C40.396,38.387,39.352,37.536,38.008,37.536z M42.405,38.231h0.016
	c0.424-0.49,0.887-0.696,1.424-0.696c0.602,0,1.085,0.258,1.298,0.842c0.367-0.55,0.973-0.842,1.542-0.842
	c1.059,0,1.315,0.73,1.164,1.746l-0.422,2.812h-1.482l0.316-2.106c0.067-0.456,0.196-1.204-0.431-1.204
	c-0.684,0-0.81,0.679-0.889,1.204l-0.316,2.106h-1.481l0.315-2.106c0.074-0.491,0.186-1.239-0.474-1.239
	c-0.659,0-0.771,0.748-0.845,1.239l-0.315,2.106h-1.481l0.662-4.411h1.481L42.405,38.231z M49.857,39.247
	c0.158-0.456,0.552-0.697,0.983-0.697c0.399,0,0.724,0.275,0.734,0.697H49.857z M52.839,39.987c0.226-1.505-0.471-2.451-1.92-2.451
	c-1.359,0-2.444,0.886-2.665,2.356c-0.229,1.522,0.682,2.348,2.065,2.348c0.953,0,1.96-0.474,2.352-1.514h-1.424
	c-0.207,0.292-0.452,0.404-0.769,0.404c-0.611,0-0.876-0.344-0.782-0.981h3.118L52.839,39.987z M40.604,34.899
	c0.291,0,0.457,0.276,0.417,0.549c-0.038,0.256-0.302,0.581-0.583,0.581s-0.45-0.325-0.412-0.581
	C40.065,35.175,40.313,34.899,40.604,34.899z M40.388,36.354c0.495,0,0.9-0.408,0.972-0.893c0.069-0.474-0.213-0.888-0.708-0.888
	c-0.496,0-0.901,0.415-0.971,0.888C39.609,35.946,39.893,36.354,40.388,36.354z M42.779,34.574h0.238l0.719,1.182h0.005l0.167-1.138
	h0.331l-0.255,1.725h-0.238l-0.719-1.182h-0.004l-0.169,1.149h-0.331L42.779,34.574z M45.73,36.022h0.468l-0.042,0.288h-0.8
	l0.251-1.692h0.331L45.73,36.022z M47.718,36.31h-0.331l0.25-1.692h0.331L47.718,36.31z M49.341,34.574h0.239l0.719,1.182h0.005
	l0.168-1.138h0.331l-0.256,1.725h-0.238l-0.719-1.182h-0.004l-0.17,1.149h-0.331L49.341,34.574z M52.458,34.906l-0.055,0.373h0.527
	l-0.042,0.287H52.36l-0.068,0.457h0.547l-0.042,0.288h-0.878l0.25-1.692h0.878l-0.042,0.288H52.458z M28.932,36.48l0.288-1.893
	c0.428,0.049,0.824,0.172,1.212,0.354l-0.35,2.33C29.842,36.834,29.419,36.565,28.932,36.48z M29.359,42.089
	c-0.507,0.157-0.903,0.282-1.331,0.327l0.289-1.894c0.505-0.084,1.013-0.361,1.393-0.764L29.359,42.089z M27.684,42.437
	c-0.986,0-1.865-0.397-2.492-1.101c-0.667-0.744-0.878-1.715-0.711-2.826c0.153-1.021,0.666-2.003,1.452-2.737
	c0.808-0.753,1.88-1.209,2.875-1.209c0.141,0,0.278,0.009,0.412,0.024l-0.288,1.893c-0.111-0.02-0.224-0.033-0.34-0.033
	c-1.126,0-2.023,0.913-2.198,2.073c-0.177,1.18,0.465,2.032,1.61,2.032c0.104,0,0.208-0.012,0.313-0.029l-0.289,1.894
	C27.917,42.428,27.803,42.437,27.684,42.437z"/>
<path fill-rule="evenodd" clip-rule="evenodd" fill="#646464" d="M16,17h39c1.657,0,3,1.343,3,3v31c0,1.657-1.343,3-3,3H16
	c-1.657,0-3-1.343-3-3V20C13,18.343,14.343,17,16,17z M17,19h37c1.104,0,2,0.896,2,2v29c0,1.104-0.896,2-2,2H17
	c-1.104,0-2-0.896-2-2V21C15,19.896,15.896,19,17,19z M18.5,21c0.829,0,1.5,0.671,1.5,1.5S19.329,24,18.5,24S17,23.329,17,22.5
	S17.671,21,18.5,21z M23.5,21c0.829,0,1.5,0.671,1.5,1.5S24.329,24,23.5,24S22,23.329,22,22.5S22.671,21,23.5,21z M28.5,21
	c0.828,0,1.5,0.671,1.5,1.5S29.328,24,28.5,24c-0.829,0-1.5-0.671-1.5-1.5S27.671,21,28.5,21z"/>
<path fill-rule="evenodd" clip-rule="evenodd" fill="#646464" d="M14,27v-2h36v2H14z M52,27v-2h5v2H52z"/>
</svg>
