<?xml version="1.0" encoding="utf-8"?>
<!DOCTYPE svg PUBLIC "-//W3C//DTD SVG 1.1//EN" "http://www.w3.org/Graphics/SVG/1.1/DTD/svg11.dtd">
<svg version="1.1" xmlns="http://www.w3.org/2000/svg" x="0px" y="0px" width="70px" height="70px" viewBox="0 0 70 70">
<path fill-rule="evenodd" clip-rule="evenodd" fill="#FFFFFF" d="M35,0c19.33,0,35,15.67,35,35S54.33,70,35,70S0,54.33,0,35
	S15.67,0,35,0z"/>
<path fill="#646464" d="M22.74,35.204c-0.167-0.167-0.399-0.264-0.636-0.264c-0.237,0-0.469,0.097-0.637,0.264
	c-0.167,0.167-0.264,0.4-0.264,0.637c0,0.236,0.096,0.469,0.264,0.636c0.168,0.167,0.4,0.264,0.637,0.264
	c0.236,0,0.469-0.097,0.636-0.264c0.167-0.167,0.264-0.4,0.264-0.636C23.004,35.604,22.908,35.372,22.74,35.204z M28.082,35.841
	c0,0.497-0.403,0.9-0.9,0.9h-0.779c-0.497,0-0.9-0.403-0.9-0.9s0.403-0.9,0.9-0.9h0.779C27.679,34.941,28.082,35.344,28.082,35.841z
	 M31.602,35.841c0,0.236-0.096,0.469-0.264,0.636c-0.168,0.167-0.4,0.264-0.636,0.264c-0.237,0-0.469-0.097-0.636-0.264
	c-0.167-0.167-0.264-0.4-0.264-0.636c0-0.237,0.097-0.469,0.264-0.637c0.167-0.167,0.399-0.264,0.636-0.264
	c0.236,0,0.469,0.097,0.636,0.264C31.505,35.372,31.602,35.604,31.602,35.841z M35.9,35.841c0,0.236-0.096,0.469-0.264,0.636
	c-0.167,0.167-0.399,0.264-0.636,0.264s-0.469-0.097-0.636-0.264c-0.167-0.167-0.264-0.4-0.264-0.636
	c0-0.237,0.096-0.469,0.264-0.637c0.167-0.167,0.399-0.264,0.636-0.264s0.469,0.097,0.636,0.264
	C35.804,35.372,35.9,35.604,35.9,35.841z M40.198,35.841c0,0.236-0.095,0.469-0.264,0.636c-0.167,0.167-0.399,0.264-0.636,0.264
	s-0.469-0.097-0.636-0.264c-0.167-0.167-0.264-0.4-0.264-0.636c0-0.237,0.096-0.469,0.264-0.637
	c0.167-0.167,0.399-0.264,0.636-0.264s0.469,0.097,0.636,0.264C40.103,35.372,40.198,35.604,40.198,35.841z M44.497,35.841
	c0,0.236-0.096,0.469-0.263,0.636c-0.168,0.167-0.4,0.264-0.637,0.264s-0.468-0.097-0.636-0.264c-0.167-0.167-0.264-0.4-0.264-0.636
	c0-0.237,0.096-0.469,0.264-0.637c0.167-0.167,0.399-0.264,0.636-0.264c0.238,0,0.469,0.097,0.637,0.264
	C44.401,35.372,44.497,35.604,44.497,35.841z M48.796,35.841c0,0.236-0.096,0.469-0.264,0.636c-0.167,0.167-0.399,0.264-0.636,0.264
	s-0.469-0.097-0.636-0.264c-0.167-0.167-0.264-0.4-0.264-0.636c0-0.237,0.096-0.469,0.264-0.637
	c0.167-0.167,0.398-0.264,0.636-0.264c0.237,0,0.469,0.097,0.636,0.264C48.7,35.372,48.796,35.604,48.796,35.841z M19.331,40.415
	c0,0.497-0.403,0.9-0.9,0.9H17.72c-0.497,0-0.9-0.403-0.9-0.9s0.403-0.9,0.9-0.9h0.711C18.928,39.515,19.331,39.918,19.331,40.415z
	 M24.345,40.415c0,0.497-0.403,0.9-0.9,0.9h-0.711c-0.497,0-0.9-0.403-0.9-0.9s0.403-0.9,0.9-0.9h0.711
	C23.942,39.515,24.345,39.918,24.345,40.415z M27.945,40.415c0,0.237-0.095,0.469-0.263,0.637c-0.168,0.167-0.4,0.264-0.637,0.264
	c-0.237,0-0.469-0.097-0.636-0.264c-0.167-0.167-0.263-0.4-0.263-0.637c0-0.236,0.096-0.469,0.263-0.636
	c0.167-0.167,0.399-0.264,0.636-0.264c0.237,0,0.469,0.097,0.637,0.264C27.85,39.946,27.945,40.179,27.945,40.415z M32.3,40.415
	c0,0.237-0.096,0.469-0.264,0.637s-0.399,0.264-0.636,0.264s-0.469-0.097-0.636-0.264c-0.167-0.167-0.264-0.4-0.264-0.637
	c0-0.236,0.096-0.469,0.264-0.636c0.167-0.167,0.399-0.264,0.636-0.264s0.469,0.097,0.636,0.264
	C32.204,39.946,32.3,40.179,32.3,40.415z M23.753,44.75c0,0.238-0.096,0.469-0.264,0.636s-0.399,0.264-0.636,0.264
	s-0.469-0.096-0.636-0.264s-0.264-0.398-0.264-0.636c0-0.237,0.096-0.469,0.264-0.636s0.399-0.264,0.636-0.264
	s0.469,0.096,0.636,0.264S23.753,44.513,23.753,44.75z M28.108,44.75c0,0.237-0.096,0.469-0.263,0.636
	c-0.168,0.167-0.4,0.264-0.637,0.264c-0.237,0-0.469-0.096-0.637-0.264c-0.167-0.167-0.263-0.398-0.263-0.636
	c0-0.237,0.096-0.469,0.263-0.636c0.167-0.167,0.4-0.264,0.637-0.264c0.237,0,0.469,0.096,0.637,0.264
	C28.012,44.281,28.108,44.513,28.108,44.75z M39.502,40.415c0,0.497-0.403,0.9-0.9,0.9h-1.801c-0.497,0-0.9-0.403-0.9-0.9
	s0.403-0.9,0.9-0.9h1.801C39.099,39.515,39.502,39.918,39.502,40.415z M37.88,44.75c0,0.497-0.403,0.9-0.9,0.9h-4.89
	c-0.497,0-0.9-0.403-0.9-0.9c0-0.497,0.403-0.9,0.9-0.9h4.89C37.477,43.85,37.88,44.253,37.88,44.75z M53.18,40.415
	c0,0.497-0.402,0.9-0.9,0.9h-0.722c-0.497,0-0.9-0.403-0.9-0.9s0.403-0.9,0.9-0.9h0.722C52.777,39.515,53.18,39.918,53.18,40.415z
	 M31.13,17.72c0,0.237-0.096,0.469-0.264,0.636s-0.399,0.264-0.636,0.264s-0.469-0.096-0.636-0.264s-0.264-0.399-0.264-0.636
	s0.096-0.469,0.264-0.636s0.399-0.264,0.636-0.264s0.469,0.096,0.636,0.264S31.13,17.483,31.13,17.72z M58.04,34.381v10.716
	c0,2.369-1.71,4.344-3.96,4.76v7.282c0,0.497-0.403,0.9-0.9,0.9c-0.497,0-0.9-0.403-0.9-0.9V46.691c0-0.398-0.324-0.722-0.722-0.722
	s-0.722,0.324-0.722,0.722v4.277c0,0.497-0.403,0.9-0.9,0.9s-0.9-0.403-0.9-0.9v-5.866c0-0.398-0.324-0.722-0.722-0.722
	c-0.397,0-0.722,0.324-0.722,0.722v5.866c0,0.497-0.403,0.9-0.9,0.9s-0.9-0.403-0.9-0.9v-5.866v-3.066
	c0-0.398-0.324-0.722-0.722-0.722s-0.722,0.324-0.722,0.722v3.066v5.866c0,0.497-0.403,0.9-0.9,0.9c-0.498,0-0.9-0.403-0.9-0.9
	v-5.866c0-0.398-0.324-0.722-0.722-0.722s-0.722,0.324-0.722,0.722v5.201c0.013,0.13,0.02,0.262,0.02,0.395v0.27
	c0,0.497-0.403,0.9-0.9,0.9c-0.003,0-0.006,0-0.01,0s-0.006,0-0.01,0c-0.497,0-0.9-0.403-0.9-0.9V50.41
	c-0.105-0.848-0.663-1.558-1.425-1.875v5.123c0,1.057,0.362,2.095,1.019,2.923c0.309,0.389,0.244,0.956-0.146,1.264
	c-0.166,0.131-0.363,0.195-0.559,0.195c-0.265,0-0.528-0.117-0.706-0.341c-0.908-1.145-1.408-2.58-1.408-4.042v-6.202
	c0-0.497,0.403-0.9,0.9-0.9c0.861,0,1.662,0.264,2.325,0.715v-2.167c0-1.391,1.131-2.522,2.522-2.522
	c0.251,0,0.493,0.038,0.722,0.106v-0.65c0-1.391,1.131-2.522,2.522-2.522s2.522,1.131,2.522,2.522v0.65
	c0.229-0.068,0.471-0.106,0.722-0.106c1.116,0,2.065,0.729,2.396,1.736c0.265-0.095,0.551-0.147,0.848-0.147
	c1.391,0,2.522,1.131,2.522,2.521v1.317c1.249-0.379,2.16-1.541,2.16-2.912V34.381c0-1.693-1.365-3.071-3.043-3.071H16.803
	c-1.678,0-3.043,1.377-3.043,3.071v10.716c0,1.678,1.365,3.043,3.043,3.043H33.89c0.497,0,0.9,0.403,0.9,0.9s-0.403,0.9-0.9,0.9
	H16.803c-2.67,0-4.843-2.172-4.843-4.843V34.381c0-2.686,2.172-4.871,4.843-4.871h17.303c-0.003-0.032-0.005-0.064-0.005-0.097
	v-3.623c0-1.769,1.439-3.208,3.208-3.208h3.516c1.093,0,1.981-0.889,1.981-1.981c0-1.092-0.889-1.981-1.981-1.981H33.65
	c-0.497,0-0.9-0.403-0.9-0.9s0.403-0.9,0.9-0.9h7.174c2.085,0,3.781,1.696,3.781,3.781s-1.696,3.781-3.781,3.781h-3.516
	c-0.776,0-1.408,0.631-1.408,1.408v3.623c0,0.033-0.002,0.064-0.005,0.097h17.303C55.868,29.51,58.04,31.695,58.04,34.381z
	 M26.9,11.959H12.86c-0.497,0-0.9,0.403-0.9,0.9v14.399c0,0.497,0.403,0.9,0.9,0.9H26.9c0.497,0,0.9-0.403,0.9-0.9V12.86
	C27.8,12.363,27.397,11.959,26.9,11.959z M26,26.359H13.76v-12.6H26V26.359z M20.775,23.658c0,0.497-0.403,0.9-0.9,0.9h-2.991
	c-0.497,0-0.9-0.403-0.9-0.9c0-0.497,0.403-0.9,0.9-0.9h2.991C20.373,22.758,20.775,23.162,20.775,23.658z M23.775,20.06
	c0,0.497-0.403,0.9-0.9,0.9h-5.991c-0.497,0-0.9-0.403-0.9-0.9s0.403-0.9,0.9-0.9h5.991C23.373,19.16,23.775,19.563,23.775,20.06z
	 M23.775,16.46c0,0.497-0.403,0.9-0.9,0.9h-5.991c-0.497,0-0.9-0.403-0.9-0.9c0-0.497,0.403-0.9,0.9-0.9h5.991
	C23.373,15.56,23.775,15.963,23.775,16.46z"/>
</svg>
